v -40.80215420480025 -9.752208605038442 58.49064742637208
v -18.76256167702439 -40.120900000887815 47.21030526466401
v -1.441922367144316 -10.709454048591097 13.425843382019666
v -48.70093670490681 4.950552972450047 -25.416016378543116
v -54.13409897440506 3.208972102488287 3.511796164682425
v -9.870587334819515 40.4025050824458 -11.492670564134448
v -5.729969018645692 -53.53535157154694 63.64059629546668
v -3.1749162601957233 29.448830053578472 -29.31739420936842
v -52.096018037347115 -15.470295911970373 -25.861933199373954
v -5.660400333852085 -76.26769644979248 4.319021219655023
v -20.57064043699377 -85.92785931558197 14.75011098894466
v -8.50986757189008 -41.93033184283968 25.523276280388412
v -36.800058874593155 8.33071519936018 58.420077829163155
v -11.192663977415599 -73.32198961154518 49.846896762944255
v -26.573459594156972 -40.617235305512445 51.59146718049412
v -34.333946047401945 -40.083209414942495 35.8605730346021
v -30.08309685663388 -94.46637059572718 11.43707118433298
v 0.6751460861743876 -41.102897093843204 8.457533684234479
v -50.627738025842696 14.344587968358958 -18.211617813204807
v -15.294579453235128 -29.136526506106055 -8.472442423354183
v -53.15085347348054 -43.873452657938785 47.769640337361686
v -45.363327419879944 37.50714175543512 -13.858334289453932
v -50.61284674478773 16.53644402553561 19.754792149721204
v -34.05341052999123 -71.45190480241766 46.87960218063172
v -49.60325005914801 -36.823244124897954 -21.8197900372639
v -7.216869539065673 -71.85834586631954 13.636198732240414
v -4.574495550771257 -36.829786661140794 31.832102899518745
v -8.04505429944896 -7.0086797911840995 53.65749801287943
v -59.72546429532889 -55.073636193600514 1.926712869328629
v -46.39225515009167 -26.82665138844626 -6.223405684108112
v -27.2524282965794 -4.031498291576482 -13.080493826869587
v -23.867091270166902 -10.199761467852605 -32.546365805881344
v -30.817447631046928 -56.47299655228513 -8.259990578604766
v -38.09374108831964 -19.851569837318735 63.76478790322323
v -6.938358396764326 -16.06432093217734 70.72539124783923
v -11.22383167422521 50.2770360314907 5.433929366517473
v -12.916482882163654 35.51196317182903 -20.021089834015523
v -17.604772268353315 -45.765008795372076 -7.037671866001953
v -35.819807698877 -28.829541018721383 47.64144267136074
v -42.66623668433105 13.494807139063843 4.33473661026655
v -37.99801352600013 4.272805410740602 -11.962553421996239
v -43.880756499355186 27.070044651985835 30.55615453085052
v -17.31372186951214 -44.34281355335985 73.6817127952161
v -35.82206448323382 -55.88792356974153 19.358253474817356
v -4.4430016681075575 10.453901934982689 33.867840390113855
v -6.250825317603427 -54.708899330817474 10.42845336046538
v -35.367863914544884 -13.74136019546967 -30.223585349010598
v -24.816621852219377 -26.05119734688546 -22.130807123752238
v -32.44285747246531 -89.2735868388748 -18.183887032203675
v -19.381227536238107 -0.4357437810908322 69.57233293042293
v -15.615105810858694 38.47321153704356 17.217543066355816
v -34.58075104211911 17.392246413029383 -38.36696204151528
v -22.75256675207792 -25.233297547099728 50.810128251065535
v -4.306266721214145 -38.42712941116764 67.2211708891839
v -38.29824915870901 52.98164197175542 -3.139285069623076
v -31.34385937940757 -25.496966362714684 -9.97563107167538
v -13.543312206851828 -91.64032038436054 1.730444748929246
v -19.04751431184811 -99.38126642326573 -16.285893424709858
v -27.085760519565195 -62.901119051810376 4.359596959734518
v -35.01525043710155 36.90426930106621 25.056136852851175
v -46.17369797916435 -25.044784453501624 33.289213815259984
v -60.225110984395116 -10.127764220268983 28.98070656106442
v -19.447074963007598 -33.24813026674339 69.13545364246251
v -37.41375356104473 -51.76787547023346 62.55753174594792
v -13.290548341215928 -22.64363121306207 74.88682791191468
v -14.515863338416766 41.26793662009232 44.09461180983572
v -7.746858571762081 5.081599231319704 65.7938591492717
v -0.8950094701513304 30.27086554633148 2.213058972842786
v -24.9876965381436 36.83228955865072 -8.794178036649157
v -35.01258916064927 -20.142931316240627 -4.323359284269154
v -45.98243397464787 -44.44597506657361 21.18537909170048
v -29.34954068253554 -82.53110165221189 2.182702940999843
v -14.263916139769611 -100.62180502610292 9.432194993153892
v -28.85122897484166 -95.85503549905374 -5.411996309630036
v -7.91348761422981 -42.17763753252841 43.2726739954614
v -14.652170705561923 -47.270697497716455 32.76994325951118
v -19.375643495255297 -58.56467757808627 22.001080788506094
v -0.5430628602945141 5.97635359454333 27.90417174308399
v -30.104165831371095 33.18826774113336 0.850011084179657
v -40.377850661385175 -13.218314862964581 -23.239690280686037
v -42.1614390780552 -50.14202797931668 -9.78836682348748
v -55.79071019180142 -55.5444576001395 -16.287341036380838
v -16.83091469178261 -67.00621567540384 -4.4572879078520025
v -21.18982391853435 47.091873586911994 29.35366125150704
v -29.224196055449866 51.716890923972436 8.379900582746998
v -54.106615152120966 -2.930035546809844 19.625863155442456
v -7.2494284156150535 28.606752236610294 55.5432209151059
v -40.08476900808078 41.91199851394838 0.7703889382414855
v -35.38544332386522 -75.08453895732893 -14.050487325578072
v -24.820562876275286 -11.73079174404984 47.04190945424132
v -42.859031814643565 -8.245497132444838 16.485361834417194
v -61.925063646386256 -15.982968272851219 16.139728008879388
v -48.99762308194852 -55.9687498217631 28.72697824208902
v -51.055282225649044 -23.244565472025478 52.37675210277579
v -13.06898225848438 -59.66160416350728 59.24737836550208
v -20.407779056365406 28.193399243400425 32.46281830577204
v -20.266310487275682 25.840931696790154 52.74628034743913
v -12.212234882013268 7.84781515653857 40.86131461340048
v -6.218879928200995 58.47415077488694 -20.984425828731396
v -35.80555053376524 -12.657561942866566 14.656670453355328
v -57.18312474139792 -47.9119658111636 32.6788267241537
v -68.53342748367554 -24.056762404992764 2.771514627579781
v -4.131332939365509 -67.62540864848121 29.007006040282587
v -4.669112293152235 42.56567391900871 5.1150681542481955
v -59.85744289627391 -10.924387206022313 -2.4562884956846758
v -61.96414422669333 -13.15510135068609 -20.518663040741895
v -27.044429225175225 -49.44285014733226 -15.964989403478832
v -40.55650868033868 -34.98104110842979 -9.554520929858715
v -8.930273129553065 59.76586433882344 19.45179401006798
v -5.0326344525545545 -7.087319993222521 39.99711009891111
v -58.90826239059532 6.351471283762975 28.655662006590482
v -42.43295507660425 -34.42473652181629 59.748449610956776
v -31.711690945597844 31.281333109971655 38.29887180722012
v -23.07653193239721 6.870801124526471 45.063459902254145
v -6.109113194213005 49.36306873007675 33.525232452906145
v -62.25755080602404 -27.352867799802663 17.281257294091958
v -41.82768730884808 -32.2864891340483 2.785143726819193
v -41.385265415975134 -69.53891307910447 30.4288887595252
v -36.009823464085194 -84.246563755373 23.003041952996636
v -43.21840150698371 -70.49568129996597 10.935007901104584
v -6.594801569878238 -84.86810758393929 35.33175119941666
v -7.878268455045551 -58.04007577700964 42.06385220134053
v 0.5285682140580584 -30.207804660280043 23.585972095041694
v -40.19251698123977 -2.452036883446525 -38.24211441372802
v -6.328006234117695 -95.03152735352498 -10.31558980121324
v -25.498358607523677 -76.49652555935971 -3.300008885185258
v -12.18315327565949 -44.53557718903396 0.8933984728706854
v -53.30434662468084 -5.717861178548688 43.467123215283266
v -31.133159473633423 -19.330988675552984 37.909728869955956
v -8.1131290393643 64.25393699685831 -2.2167078088061496
v -36.53801547086718 28.80033112478253 15.078964570523794
v -33.37531668545569 -34.96076949579785 18.20412547693782
v -35.344874594705885 -28.973666245629964 22.042302599686238
v -50.95369035960661 -43.04568141777335 6.789855051106928
v -32.65868347035022 -51.0611132804091 30.340499837925037
v -27.114911850885715 -72.50859000786848 16.84445306117133
v -9.263409532478773 -17.948081705664798 -20.464825993128045
v -44.45716810395838 -23.458727774852782 -5.707740273219968
v -41.6017103273456 3.731749869031546 -27.111471769998904
v -48.95939631276206 -33.74951001796221 -9.575339184310735
v -60.90373710093256 -33.22577756145899 -14.720060905591849
v -9.963429869959024 -35.80013637191858 6.2220663198490245
v -35.094986827524174 0.4842328669288721 31.34218968354838
v -8.898471873562725 -23.706148042882617 50.95018065027107
v -4.235036501592663 -37.82895964998307 57.066553000713256
v -40.51072246735425 27.118059022454418 -14.673133610579152
v -25.069751559281805 59.04603329365577 -11.854067641574288
v -51.10769464477739 27.71365487058958 4.45746247967147
v -29.840439570669723 21.411941980735733 12.9417280029206
v -52.70361728006219 -16.109050585103304 3.4062781241983284
v -62.37757878611583 -48.54399646498684 15.986302054091587
v -51.143414183343296 -35.77305955027443 27.473245204308462
v -43.53850586080701 -82.68562919067418 2.8454837330143614
v -22.725298184326736 -62.354521746521684 55.59483708293239
v -26.580062539516938 -60.49601912319936 30.216077590482048
v -19.24121142409905 -83.17852011310458 39.04172862828715
v -3.6444954869729305 -78.86862514229497 23.434216973734966
v -4.598048590807926 -97.86272336561363 8.614275411675436
v -18.26931519467261 -30.744412797478976 35.733104127355915
v -19.668990345123 14.419148392700361 -20.43628356372164
v -29.12467189342641 22.24286582597495 -1.2889503391012112
v -38.2665564411285 -12.115470895851265 -22.162321078028285
v -25.324815928566235 5.933663863824986 -39.66485765071031
v -48.54355344645628 -15.204622368268621 -17.4056552984484
v -51.92654936858674 -21.14114004874893 -33.15756047965015
v -45.30612362349472 -67.84360442731936 -4.436796045716972
v -33.17960294597594 -45.85271703006009 -6.474138785046512
v -36.22508054930832 -31.8984064688673 -24.58685085979717
v -5.651832201902266 2.827073778710255 -12.302291066057396
v -1.6775864650190542 -22.54182317281848 -6.463893950115039
v 51.35819491931489 -45.20827110568998 36.29158522837805
v 9.10417214517011 38.567784369859034 5.225548449757834
v 5.558490592266838 -69.33924689133337 33.97354263376637
v 3.552326583025664 -67.35657582152696 14.93664727605085
v 35.85023833304439 -48.486142915875384 60.70292990845764
v 57.57397476447902 -53.771563971942264 -20.4478048889768
v 37.52265718256957 45.84959169080384 19.44542924652206
v 27.865856025719374 -37.57229266238695 47.80646219702569
v 10.196019647786317 -83.71662530932444 31.464982323935086
v 15.618692539015909 -61.10591224552186 61.56551912458623
v 50.83413106243746 -32.27650982350338 -22.091274978634427
v 4.591636892962848 -1.9089118911617633 41.3925901161538
v 50.63272644666805 -55.44835658188252 46.82944289671404
v 6.695598541531975 47.18745921827341 43.37839093347467
v 19.64094250681673 -33.39067459117484 37.24381276235202
v 29.63049211064498 32.42078680658754 31.206726643280447
v 15.76179416877349 -49.65702192646304 33.32669028859361
v 13.705337515462944 -74.75873105495894 14.865145893387282
v 45.31221646874459 -73.88256163328657 9.95681866508149
v 15.200167482688471 -32.352475857399206 75.31235971418586
v 41.55953931890702 -61.068740468450066 5.112623997094788
v 45.86756100277479 -66.53751197889697 -13.675297832612285
v 22.97280159525473 1.8317888411046526 64.72815121343824
v 38.232771586162436 -64.53582693040802 44.484699518514745
v 35.88556000213989 -84.271586173328 12.500299183173235
v 34.87408637867957 -20.725486552078294 10.494493918715873
v 39.76188729174811 -32.79721681386936 -7.399567722434392
v 44.98235832243055 -42.28750502533459 -16.39567589037214
v 57.609793265556355 -21.83847242305753 -26.458018098026955
v 30.988903830495197 -18.347924971932077 71.05132848445021
v 7.8055293349952395 14.295588524150956 62.96374560272304
v 3.2111580760761393 -38.287000325593624 64.87168670966514
v 35.79786900180349 -25.980802746779048 48.1699057564873
v 1.151445711224186 30.813611047648624 1.946761149460012
v 58.63223716200271 -33.68774249428911 38.890254409970495
v 67.30143343321127 -28.270923131038895 2.5720746319399663
v 6.3913526090009 9.53690625677106 28.50578751715033
v 10.561838704670969 -5.301609135291517 69.54904872543102
v 7.110157648702318 -53.54049577905962 58.05650825602362
v 55.522018034264875 -13.053978870816426 33.34860085886366
v 51.07068385851128 -17.4232555437831 53.95674922221999
v 30.646346005844354 11.458253509130241 27.20420921641536
v 40.21906119701642 3.7765537771497644 48.005646948213034
v 54.46751857610753 -3.44401076081528 44.655348380637506
v 40.34187491722287 5.797447926509274 22.097359450776345
v 44.208098052933146 30.541120564796202 -13.291364517532712
v 28.95157275732213 26.670882936559078 -1.0185050526118644
v 38.524771804583466 8.910167611470001 -6.48274049322868
v 16.560509683834404 33.77726579541351 22.545834274665093
v 2.6891092995175407 -42.38465081684264 8.067580996073978
v 7.832448541936939 31.136217073995816 -12.71335191012986
v 28.278183770637565 -64.2792663552067 3.1105130129862815
v 9.54289174045882 -52.14278793366219 8.710549000591932
v 47.211575271993944 -62.69978608630524 24.958788139022307
v 37.75176945479687 -30.707207526685032 38.33187932639456
v 54.3195324142458 -34.73645143575768 49.97314090186028
v 42.73530087773958 -54.49731299281012 23.28711591091892
v 37.76462960415097 -37.13005978435648 16.383105066413904
v 45.95080564251658 -30.675476857301724 7.5738964670976925
v 65.38787322263218 -9.38811287928781 -0.005533981438229629
v 26.60999485170632 7.381981711051377 -14.344631228709959
v 42.654441412660034 1.5364392414578014 -24.403403241866332
v 17.158353726980646 -37.57821279371695 2.72554787696231
v 19.034174640594955 -68.95856971835505 -6.183343628964279
v 52.87656618224183 -54.218256010345705 -4.119654476330863
v 27.877266715027996 -9.991992432382117 44.31293291577606
v 43.0227668078667 -31.678377709671867 61.66113526890104
v 34.5677333499177 26.029245243831085 45.65958737403158
v 29.77619904152983 20.42129540196369 12.039998581148357
v 37.9579844711886 -33.70981194360299 -13.531608737313189
v 5.949568396696093 -18.76987095597311 71.04673940756372
v 20.772858790738567 -27.414934812344416 52.05005620344255
v 39.074547291231575 53.952030491026576 -8.565551255182854
v 39.00194988366364 41.43469933640193 -0.2194341297873635
v 24.79964534809558 50.37850231188961 30.750616542516966
v 0.045919188315799296 14.882407566763609 23.056643116985683
v 6.8603559496527895 -60.64375026650572 42.9759034924662
v 36.30421274941789 -14.184427520043895 22.060288558617984
v 39.860733638391736 -23.85085424489222 -6.399085592237643
v 20.740562348255125 -8.045614022929167 -11.090911705926757
v 40.15503428862717 -84.0751373180297 -13.855657244979856
v 18.557380497086957 29.048225417721415 51.216708281083115
v 4.738774615664523 -16.85781274573983 51.87624885114402
v 35.80029982125387 7.515139883373911 58.65987277529951
v 47.18263695330876 -1.4491827150058363 38.42778117624634
v 50.60792088901779 -6.285733612579595 10.338608813942
v 64.93928919692573 -7.965551103415525 10.534246453376747
v 27.812884171818872 35.784302165301725 -8.024096362655555
v 13.254746466913435 42.609142378688475 -22.052456326733225
v 7.072196469942204 -29.99923461870881 7.3969249940065165
v 8.683344839118842 -0.030011048570359064 -13.890839748141774
v 55.460777661829546 -48.834712439980436 25.06955146415016
v 60.0524122655267 -17.178540426585297 19.796875738882786
v 26.373697901386553 10.110676405811839 -38.97704505087069
v 46.016274173448274 -9.506496023833344 -41.49675446063038
v 24.847549968263863 -10.623279388342628 -31.38234176410173
v 39.47494711974205 -27.959573335465798 -23.730767859071936
v 23.094222959987196 -3.1129430854928826 46.99138715086535
v 40.417995147792624 -8.658741770512394 60.68885637165531
v 41.83440415492772 20.539481941154726 37.18776519645267
v 5.638891902004273 29.53730164290273 24.657577751623688
v 25.28706825468281 -61.3875424945736 9.300890288499989
v 23.485842250253285 29.18547614362755 34.43906670398972
v 14.27771673086322 -43.05490709717836 73.21088054223107
v 29.815452445090845 -18.685726421189333 39.044505109407346
v 57.979301102957265 7.084795264667129 28.61001430624372
v 48.67714457334007 34.34307808362048 -3.019303458043855
v 16.612793401159998 -45.11509438860696 44.37786583097285
v 20.623480253061665 -56.94308230112236 24.094246391338686
v 17.872929772806714 -66.69941503976364 53.29753671793104
v 22.798303028693937 -80.79990372660245 43.00474407085866
v 22.133074667302022 -85.41026190315792 23.936973633973004
v 37.03061568611434 -73.11742080935753 35.34728794344164
v 54.13040515374489 10.331769227026095 -14.104432067599177
v 35.57951295274904 -4.104259808319645 -24.94113720329447
v 5.451874516146021 -92.63761634352213 -10.129241651959678
v 32.82293796953679 -47.94828176647904 -4.944734621524722
v 28.212648724467716 -72.12693276731686 -6.286934906629611
v 58.104654247071444 -55.4280598184609 6.4953697307074885
v 65.06621919394497 -17.251292728287 -16.180683660110066
v 19.26482469521433 -11.383453753341456 58.45847745122104
v 26.067557645550107 48.96502883525926 11.596680948510258
v 12.732107881978273 59.620893226004426 -12.607512460876583
v 1.2163714905078413 -7.4270421792577395 29.45310304994718
v 17.588168058573853 -21.54874597267683 -16.43210391443958
v 7.781201912670336 -71.7345784241448 5.436549569827175
v 8.224277360347982 36.01388654187225 31.940763212349896
v 15.453983383965543 48.89513258566467 31.225388369304856
v 13.437132571179953 -1.5036073364454126 45.23617816413108
v 41.5960985038871 27.709726907373003 18.79265510653794
v 55.859735557771 22.561944035936012 13.516298665102179
v 50.839817546369545 9.501936993823927 1.7478821220762752
v 60.907559967890116 2.2078423609003774 13.499536929403593
v 16.59615662557465 14.199400740307768 -21.63298165773735
v 10.88944256113076 65.84007357128623 6.856857130595883
v 9.420007421734178 52.689217432103305 9.236135468202548
v 14.871241917528867 45.07725002663742 2.20217785189005
v 2.353156853622289 -6.04827999609427 8.212540177962774
v 1.2867508657993394 -23.163447233526462 -14.266324577081251
v 5.6026978440047515 30.4425855481401 -26.623212482428983
v 6.778156044713393 -36.97794731784028 39.5914274280721
v -0.1512166613736329 -32.46402700893919 23.283320497372735
v 7.595789689017136 -48.45951225098179 18.124922284213604
v 14.277338168185619 -99.4300533491568 11.208152171206654
v 6.973656481103438 -87.64356388217142 10.225612511248631
v 19.145839347606838 -72.84877690405116 40.570684436324896
v 25.533362226303847 -60.30005211783065 30.67474617032818
v 30.724754889616033 -78.61541917340259 4.1685353365898665
v 53.94695853568314 -20.478667723997454 32.01321513733402
v 62.97578426147145 -38.32933773433133 23.74231035530678
v 47.89678036344128 -38.58332731039851 -3.702104503497117
v 55.42404289353236 -10.533400900773653 1.37756674614063
v 44.374766291554124 -31.51210706253624 -0.3849657874608332
v 41.163051078276155 -9.900410025581968 -26.05438462124306
v 17.77689951269159 -42.15065303212023 -1.7081041150025018
v 19.768676358777416 -39.79812331090681 -10.322023742944435
v 36.500121089873986 -17.622368421304394 -30.82974964544617
v 20.671721934991044 -97.93696521139123 -0.07919436907494125
v 26.210781364745962 -96.83354267841173 -9.980280478212538
v 30.386677436253756 -68.91621545667363 -13.794359388770298
v 29.508628383256077 -47.79345888847417 -15.815632433868087
v 61.71831634870036 -37.25990203783412 -14.058086571641686
v 45.659071429220695 -14.458389935882428 -18.52385984683144
v 57.26843924844191 3.202105440842001 -28.448854860173853
v 44.91216164390866 11.204499803389043 -33.10206640429644
f 1 128 129
f 53 39 54
f 55 60 85
f 113 96 84
f 4 106 164
f 159 110 28
f 66 87 115
f 27 45 110
f 86 92 62
f 45 104 51
f 99 37 69
f 150 105 102
f 132 71 152
f 18 142 123
f 4 164 105
f 125 33 83
f 48 38 167
f 128 86 129
f 90 114 13
f 39 63 54
f 1 34 65
f 101 151 93
f 14 136 156
f 46 127 18
f 43 7 2
f 85 147 55
f 146 79 22
f 41 70 100
f 120 153 72
f 109 85 84
f 35 145 144
f 43 54 63
f 36 104 6
f 51 104 36
f 24 154 135
f 24 155 154
f 11 73 121
f 17 73 11
f 37 160 69
f 82 166 29
f 89 168 107
f 94 112 39
f 90 65 35
f 65 34 53
f 54 65 53
f 55 131 60
f 133 116 92
f 7 75 2
f 106 25 141
f 106 9 25
f 127 142 18
f 59 127 46
f 60 42 113
f 21 16 61
f 62 61 94
f 145 2 144
f 54 35 65
f 145 35 54
f 66 96 97
f 67 98 87
f 98 45 51
f 99 69 147
f 99 147 85
f 148 131 88
f 19 105 150
f 70 138 132
f 70 139 138
f 102 151 71
f 105 30 102
f 140 29 134
f 17 136 119
f 17 11 136
f 57 26 158
f 157 121 73
f 158 157 73
f 159 75 110
f 76 75 122
f 78 3 68
f 142 3 123
f 80 165 124
f 47 168 80
f 57 10 26
f 83 38 10
f 33 168 167
f 84 85 60
f 132 150 117
f 40 149 91
f 148 149 40
f 9 165 25
f 83 167 38
f 1 65 90
f 109 130 85
f 14 103 122
f 98 110 45
f 164 141 140
f 106 141 164
f 43 145 54
f 152 71 101
f 29 44 134
f 2 159 144
f 122 75 7
f 82 25 81
f 33 125 126
f 39 53 34
f 113 42 13
f 113 13 114
f 50 114 90
f 132 116 133
f 11 121 156
f 76 46 12
f 19 4 105
f 89 126 49
f 20 170 142
f 151 44 93
f 49 58 74
f 38 127 59
f 86 111 5
f 143 5 111
f 64 154 95
f 64 16 154
f 95 7 43
f 148 40 23
f 148 23 131
f 30 140 134
f 102 30 134
f 119 136 155
f 119 120 72
f 119 72 17
f 52 4 19
f 80 124 47
f 82 141 25
f 25 89 81
f 58 125 57
f 20 137 170
f 32 108 48
f 38 48 127
f 34 1 129
f 5 91 92
f 154 14 95
f 68 169 6
f 94 61 112
f 35 28 50
f 87 98 115
f 36 6 130
f 149 100 91
f 44 120 118
f 27 12 45
f 27 76 12
f 13 128 90
f 84 115 109
f 115 84 66
f 92 91 133
f 91 5 40
f 93 24 21
f 75 27 110
f 169 37 8
f 16 64 15
f 87 97 67
f 68 6 104
f 115 36 109
f 115 51 36
f 23 5 143
f 150 102 117
f 71 132 117
f 117 102 71
f 155 24 119
f 156 59 77
f 156 26 59
f 157 26 156
f 158 26 157
f 78 104 45
f 46 18 12
f 160 79 146
f 31 160 169
f 32 31 162
f 105 164 30
f 80 25 165
f 26 10 59
f 125 83 10
f 127 108 142
f 48 108 127
f 167 47 48
f 34 129 39
f 14 122 95
f 170 137 169
f 128 111 86
f 143 111 128
f 62 94 129
f 86 62 129
f 15 64 95
f 61 15 112
f 61 16 15
f 35 144 28
f 15 43 63
f 15 95 43
f 96 113 114
f 96 114 97
f 50 67 97
f 28 67 50
f 147 69 22
f 130 99 85
f 6 99 130
f 88 22 148
f 161 41 100
f 149 161 100
f 116 101 21
f 152 101 116
f 132 152 116
f 154 16 135
f 119 24 118
f 118 120 119
f 103 76 122
f 12 123 45
f 160 31 41
f 162 31 56
f 108 32 162
f 163 124 52
f 81 166 82
f 125 10 57
f 126 125 49
f 89 33 126
f 107 33 89
f 13 143 128
f 128 1 90
f 94 39 129
f 112 63 39
f 35 50 90
f 109 36 130
f 42 131 143
f 60 131 42
f 55 88 131
f 55 22 88
f 133 100 132
f 91 100 133
f 44 118 93
f 44 151 134
f 24 135 21
f 118 24 93
f 103 156 77
f 14 156 103
f 136 11 156
f 95 122 7
f 31 169 137
f 137 56 31
f 138 139 150
f 41 139 70
f 139 52 19
f 163 52 139
f 141 29 140
f 125 58 49
f 42 143 13
f 84 60 113
f 116 21 61
f 62 92 61
f 86 5 92
f 15 63 112
f 16 21 135
f 144 159 28
f 2 145 43
f 66 84 96
f 50 97 114
f 87 66 97
f 28 98 67
f 104 78 68
f 98 51 115
f 28 110 98
f 69 146 22
f 69 160 146
f 147 22 55
f 37 99 8
f 6 8 99
f 169 8 6
f 40 5 23
f 131 23 143
f 79 149 148
f 79 148 22
f 79 161 149
f 138 150 132
f 70 132 100
f 101 93 21
f 92 116 61
f 151 101 71
f 102 134 151
f 29 166 120
f 120 44 29
f 30 164 140
f 155 14 154
f 155 136 14
f 72 73 17
f 157 156 121
f 158 58 57
f 58 158 73
f 58 73 74
f 74 73 72
f 75 159 2
f 75 76 27
f 76 103 46
f 77 46 103
f 59 46 77
f 3 169 68
f 3 142 170
f 78 45 123
f 3 78 123
f 18 123 12
f 160 161 79
f 161 160 41
f 139 41 31
f 163 139 31
f 160 37 169
f 32 163 31
f 47 163 32
f 48 47 32
f 19 150 139
f 52 106 4
f 9 106 52
f 124 9 52
f 165 9 124
f 47 124 163
f 153 74 72
f 153 49 74
f 166 49 153
f 166 153 120
f 89 49 166
f 81 89 166
f 82 29 141
f 168 89 25
f 80 168 25
f 10 38 59
f 167 83 33
f 168 47 167
f 107 168 33
f 170 169 3
f 20 56 137
f 20 142 108
f 56 20 108
f 108 162 56
f 236 291 200
f 298 305 184
f 300 277 244
f 253 299 185
f 204 308 246
f 189 283 195
f 206 229 320
f 264 324 327
f 325 326 223
f 224 289 227
f 212 215 300
f 243 293 292
f 247 280 180
f 326 296 222
f 298 252 273
f 297 219 299
f 237 178 225
f 223 272 279
f 195 282 314
f 206 230 229
f 176 181 332
f 200 291 241
f 210 263 257
f 259 231 261
f 223 326 272
f 190 178 237
f 266 240 285
f 332 181 290
f 177 243 292
f 207 294 182
f 215 302 301
f 294 311 182
f 260 220 312
f 272 222 174
f 315 314 282
f 171 262 320
f 250 197 295
f 327 326 266
f 198 181 176
f 334 333 290
f 236 268 291
f 177 300 244
f 205 263 319
f 250 261 231
f 202 190 242
f 255 213 236
f 240 197 285
f 296 286 328
f 275 214 269
f 305 298 292
f 294 207 246
f 246 308 294
f 183 224 227
f 290 333 321
f 273 245 298
f 245 273 186
f 274 178 190
f 186 270 177
f 254 270 238
f 270 254 213
f 257 263 256
f 258 304 259
f 172 271 307
f 295 260 309
f 313 187 311
f 315 328 314
f 188 328 315
f 222 296 188
f 317 280 316
f 314 328 195
f 329 189 318
f 211 319 210
f 205 319 226
f 285 232 335
f 181 324 265
f 325 233 197
f 197 233 295
f 266 325 240
f 327 267 287
f 288 251 329
f 267 198 330
f 332 290 289
f 176 235 192
f 332 235 176
f 265 335 199
f 181 265 199
f 293 243 258
f 194 183 171
f 322 232 249
f 322 284 232
f 250 231 285
f 201 297 299
f 303 256 302
f 293 310 305
f 174 315 179
f 282 317 281
f 240 325 197
f 288 234 287
f 199 334 290
f 291 268 193
f 203 200 242
f 177 270 300
f 238 186 273
f 202 185 274
f 204 221 261
f 273 252 268
f 268 254 238
f 300 301 277
f 280 247 173
f 183 283 224
f 194 171 225
f 278 311 209
f 209 180 274
f 237 225 211
f 215 212 255
f 216 258 243
f 239 218 217
f 305 307 306
f 221 307 305
f 260 295 233
f 261 309 308
f 310 259 261
f 311 185 182
f 316 179 281
f 174 179 272
f 188 174 222
f 317 283 194
f 283 189 224
f 225 319 211
f 262 323 206
f 227 321 323
f 322 249 196
f 288 329 234
f 330 251 288
f 324 198 267
f 332 289 235
f 251 191 189
f 192 235 191
f 236 200 269
f 219 271 299
f 187 247 209
f 175 280 194
f 175 194 178
f 319 263 210
f 196 249 218
f 308 312 294
f 223 173 313
f 223 279 173
f 183 227 262
f 225 226 319
f 287 267 288
f 268 252 193
f 193 208 291
f 193 252 208
f 241 202 242
f 269 203 275
f 172 246 207
f 172 204 246
f 247 180 209
f 261 250 295
f 299 253 201
f 180 175 178
f 203 211 275
f 210 257 303
f 256 248 239
f 310 261 221
f 312 313 311
f 280 317 194
f 317 316 281
f 282 195 317
f 227 289 321
f 224 191 289
f 224 189 191
f 320 205 171
f 196 229 322
f 228 248 263
f 229 228 320
f 232 285 231
f 264 285 335
f 264 327 266
f 331 330 288
f 192 191 251
f 198 176 192
f 284 322 230
f 333 335 284
f 323 333 230
f 334 335 333
f 334 199 335
f 242 200 241
f 200 203 269
f 271 172 207
f 182 299 271
f 271 207 182
f 194 225 178
f 263 248 256
f 222 272 326
f 328 329 318
f 184 297 201
f 252 184 201
f 253 185 202
f 253 208 201
f 274 190 202
f 211 203 237
f 238 270 186
f 214 236 269
f 214 255 236
f 275 303 214
f 302 256 239
f 215 303 302
f 276 303 215
f 216 244 277
f 239 217 277
f 306 297 184
f 293 259 310
f 258 259 293
f 261 308 204
f 185 311 278
f 312 311 294
f 179 315 282
f 228 263 205
f 216 304 258
f 231 216 217
f 284 335 232
f 331 288 267
f 235 289 191
f 230 322 229
f 199 290 181
f 238 273 268
f 208 241 291
f 252 201 208
f 242 190 237
f 237 203 242
f 213 254 268
f 236 213 268
f 277 301 239
f 300 215 301
f 244 243 177
f 292 298 245
f 292 245 186
f 172 221 204
f 279 316 173
f 247 313 173
f 187 313 247
f 173 316 280
f 194 283 183
f 183 262 171
f 232 218 249
f 250 285 197
f 326 234 296
f 287 234 326
f 251 189 329
f 323 230 206
f 323 321 333
f 252 298 184
f 177 292 186
f 253 202 241
f 253 241 208
f 299 182 185
f 180 178 274
f 278 274 185
f 209 274 278
f 275 210 303
f 210 275 211
f 212 300 270
f 212 270 213
f 212 213 255
f 276 215 255
f 276 255 214
f 303 276 214
f 248 218 239
f 248 196 218
f 302 239 301
f 257 256 303
f 216 243 244
f 277 217 216
f 271 219 307
f 219 297 306
f 307 219 306
f 306 184 305
f 293 305 292
f 221 172 307
f 305 310 221
f 260 233 220
f 308 260 312
f 309 260 308
f 261 295 309
f 311 187 209
f 313 312 220
f 220 223 313
f 188 296 328
f 281 179 282
f 272 316 279
f 179 316 272
f 188 315 174
f 180 280 175
f 195 283 317
f 195 318 189
f 328 318 195
f 226 225 171
f 205 226 171
f 320 228 205
f 320 262 206
f 227 323 262
f 228 196 248
f 229 196 228
f 231 259 304
f 231 304 216
f 218 231 217
f 232 231 218
f 264 266 285
f 265 264 335
f 324 264 265
f 325 220 233
f 220 325 223
f 326 325 266
f 327 287 326
f 324 267 327
f 324 181 198
f 329 328 286
f 234 286 296
f 329 286 234
f 330 192 251
f 330 198 192
f 267 330 331
f 289 290 321
f 333 284 230
