v -53.20759420055022 14.047142804702599 4.380662912907792
v -48.768011160790714 -25.717980938712188 29.452107033892034
v -29.532823662959988 -14.256623784148257 -17.608684352524886
v -6.571717197864457 -29.099206182311224 69.152175554023
v -29.35473967788907 30.83352613634341 5.045972980483929
v -14.611318073844634 -4.5356689173755225 66.20135759184261
v -17.417868662419515 -54.20783608341478 51.510224164900855
v -3.2722380042663306 -0.9703430555815672 38.80643663922315
v -32.88330035923845 -88.22874921989778 5.092549890582323
v -30.931873051640036 -37.567592524226086 -9.636317975786861
v -24.595853892549577 49.19007552414896 26.68078842254491
v -38.60405308052727 -79.5573948266962 -15.139306640482888
v -24.820562876275286 -11.73079174404984 47.04190945424132
v -35.05442685671242 -29.897043310163287 22.245212388241203
v -0.7236046246485187 36.774650451422175 4.568993312840272
v -7.533062684190004 54.2023207059594 32.71833306865643
v -35.596947613338685 -69.53174002658555 43.059517299427824
v -51.85169491058139 -62.31250183516237 7.627449397543425
v -2.8392394674230235 -77.65758275484245 8.014868455003562
v -4.247866407297799 -55.40089762674743 13.931423747624809
v -8.430497167033437 -100.71779494788564 -7.293791704536587
v -53.30434662468084 -5.717861178548688 43.467123215283266
v -9.3180954128819 60.00215095165775 -15.868386226489854
v -51.56701248698052 -39.263692687806 12.426901429365989
v -41.7062166285634 3.4713040599026947 -33.26628963778596
v -61.98304671304948 -22.608079852471775 -18.661999295042808
v -35.38151358053945 5.8565323208964974 54.41029570817211
v -43.870593543024256 35.676379537220264 -10.562788722255993
v -21.891428998460512 -72.99066833474683 24.213178216723346
v -9.489440958765151 20.841974556135565 -19.04450190225477
v -5.009722641255565 -22.39582844120283 -12.487628530942214
v 19.64094250681673 -33.39067459117484 37.24381276235202
v 21.778987290234824 -29.974006655994213 55.012857583104385
v 38.334837682223394 -25.029401304639293 0.4630433035046421
v 4.318491062112694 -34.38315211687083 57.39564294770719
v 8.381904516458265 31.954449553241542 -18.906949158528548
v 33.306947467609994 6.968178895650269 27.289461993038437
v 41.83621469873011 -9.926419991986588 64.18699032309247
v 33.037113824249055 19.418751448407583 9.285417346647991
v 17.64366565162554 43.81392423024034 12.385113246599301
v 41.04060819411487 -66.26074939582392 41.60238031643721
v 62.538136871736555 -33.588424767611876 7.2334995383621665
v 50.99438883022423 -25.48180262224355 45.26144959294688
v 7.931497817394564 -16.554473329512273 72.18970608503417
v 36.93368449330255 48.47513926867368 -6.356237869461115
v 14.290007752343811 -56.43428224385585 53.566113812770226
v 38.3178220884125 -32.16812832351887 -10.520138131703455
v 50.463414153544285 -60.69747887688058 -12.713649563443933
v 7.605407600078169 32.11295417525892 56.27235191665207
v 46.69287489956261 -27.444684654693216 22.706713889080827
v 24.847549968263863 -10.623279388342628 -31.38234176410173
v 23.943464763825776 -9.470818781180343 54.40086098441982
v 6.590243363224205 33.621148812831734 19.19708309192875
v 33.0661275313088 39.180925895505595 21.963367497439208
v 58.646295352712855 5.129451901255673 5.32101376454495
v 56.34552617454125 -55.56541217526263 6.6767552362315765
v 1.9093816847442517 -29.151327419113716 36.93171721939236
v 13.437132571179953 -1.5036073364454126 45.23617816413108
v 8.987556138676869 64.36467131789816 7.522407139463655
v 37.516552519425915 -86.2479932418727 0.2502156504542548
v 61.186562403161844 -7.191269382353485 -0.7880236896915425
v 6.728297317012377 -43.23471320370116 -1.8729416917528725
v 31.5171359191615 -49.2744527214389 -12.64603144660789
v 18.770771272048304 -81.91968003710006 11.783445724200671
v 65.41054572473394 -20.146115803850584 -15.981531704154053
v 45.272552298423285 -22.145768101982544 -12.018364691373757
v 41.53149293421788 5.034925646173072 -36.51311118906387
f 4 22 2
f 8 15 6
f 23 30 28
f 14 24 2
f 22 1 2
f 13 11 27
f 2 24 17
f 5 25 14
f 23 15 30
f 6 15 23
f 17 7 2
f 17 29 7
f 12 9 18
f 12 25 10
f 13 4 6
f 26 25 12
f 10 31 20
f 29 10 20
f 23 28 11
f 25 24 14
f 25 18 24
f 9 21 29
f 8 31 15
f 1 5 14
f 16 23 11
f 11 1 27
f 6 11 13
f 21 19 29
f 12 21 9
f 1 14 2
f 15 31 30
f 24 18 17
f 27 22 13
f 7 20 8
f 16 11 6
f 16 6 23
f 29 17 9
f 30 5 28
f 3 30 31
f 21 10 19
f 10 25 3
f 27 1 22
f 6 4 8
f 17 18 9
f 30 3 5
f 12 10 21
f 22 4 13
f 11 28 1
f 7 29 20
f 31 10 3
f 26 18 25
f 7 4 2
f 4 7 8
f 5 1 28
f 31 8 20
f 25 5 3
f 12 18 26
f 19 10 29
f 35 58 32
f 36 62 57
f 59 40 58
f 62 63 46
f 38 52 44
f 33 46 43
f 51 47 67
f 37 55 54
f 67 63 51
f 47 62 36
f 59 49 54
f 65 66 56
f 51 62 47
f 63 48 60
f 67 48 63
f 48 67 65
f 61 67 34
f 47 36 67
f 49 59 58
f 45 36 59
f 35 32 33
f 54 49 52
f 41 43 46
f 36 40 59
f 41 56 66
f 63 60 64
f 65 56 48
f 40 53 58
f 62 46 57
f 43 41 42
f 52 49 44
f 44 35 33
f 53 36 57
f 58 35 49
f 43 50 55
f 64 60 46
f 41 48 56
f 41 60 48
f 34 42 61
f 65 67 66
f 33 38 44
f 57 58 53
f 35 44 49
f 33 55 38
f 55 50 39
f 39 45 54
f 32 57 46
f 38 54 52
f 67 39 34
f 66 61 42
f 58 57 32
f 46 33 32
f 33 43 55
f 37 54 38
f 55 37 38
f 50 34 39
f 55 39 54
f 45 59 54
f 36 53 40
f 64 46 63
f 60 41 46
f 42 50 43
f 41 66 42
f 42 34 50
f 39 36 45
f 67 36 39
f 63 62 51
f 66 67 61
