v -52.43619157074437 3.551076624494578 6.994248756258027
v -36.800058874593155 8.33071519936018 58.420077829163155
v -39.60452094868635 -25.216990612593477 37.69569571636389
v -55.38964385356813 -33.58240993308823 27.919261543250922
v -24.317174655076176 -16.165293511840254 -30.674764391300265
v -6.571717197864457 -29.099206182311224 69.152175554023
v -13.039073966831449 -6.335122497255535 70.05752997444044
v -29.35473967788907 30.83352613634341 5.045972980483929
v -44.85431390984898 24.95286749111564 16.79799689631025
v -13.380403244948662 23.58099454249237 29.46921720058379
v -13.018822912389133 -97.1332863271596 7.44270235972309
v -18.960774494218693 -47.810501072004364 52.88569414284171
v -3.2722380042663306 -0.9703430555815672 38.80643663922315
v -42.71860197809896 -10.218350721822754 -30.832299555326696
v -32.88330035923845 -88.22874921989778 5.092549890582323
v -30.931873051640036 -37.567592524226086 -9.636317975786861
v -24.595853892549577 49.19007552414896 26.68078842254491
v -38.60405308052727 -79.5573948266962 -15.139306640482888
v -24.820562876275286 -11.73079174404984 47.04190945424132
v -9.212195996570703 -61.61070974540145 58.41343713361571
v -35.05442685671242 -29.897043310163287 22.245212388241203
v -0.7236046246485187 36.774650451422175 4.568993312840272
v -40.27576487217021 1.7011092446768135 -26.6280186551877
v -7.533062684190004 54.2023207059594 32.71833306865643
v -35.596947613338685 -69.53174002658555 43.059517299427824
v -51.85169491058139 -62.31250183516237 7.627449397543425
v -2.8392394674230235 -77.65758275484245 8.014868455003562
v -4.247866407297799 -55.40089762674743 13.931423747624809
v -10.965010112624844 -95.4113582482671 -9.734691744327545
v -53.30434662468084 -5.717861178548688 43.467123215283266
v -9.3180954128819 60.00215095165775 -15.868386226489854
v -51.56701248698052 -39.263692687806 12.426901429365989
v -45.240453159868025 -26.040131774879267 -10.80913979387181
v -61.98304671304948 -22.608079852471775 -18.661999295042808
v -35.094986827524174 0.4842328669288721 31.34218968354838
v -43.870593543024256 35.676379537220264 -10.562788722255993
v -27.201280325799168 -64.1659611739578 22.057728291412946
v -19.83488847474136 -80.18378959955666 31.403446415117166
v -9.489440958765151 20.841974556135565 -19.04450190225477
v -29.93629406472263 -6.166724336557317 -15.292249870391347
v -36.62462005598404 10.18557742174072 -37.53377850205463
v -5.009722641255565 -22.39582844120283 -12.487628530942214
v 19.64094250681673 -33.39067459117484 37.24381276235202
v 21.778987290234824 -29.974006655994213 55.012857583104385
v 38.334837682223394 -25.029401304639293 0.4630433035046421
v 43.57809924099513 -10.838237810635071 58.46360421353678
v 4.318491062112694 -34.38315211687083 57.39564294770719
v 8.381904516458265 31.954449553241542 -18.906949158528548
v 33.306947467609994 6.968178895650269 27.289461993038437
v 38.53497703108348 9.19794737799644 53.936527842285244
v 33.037113824249055 19.418751448407583 9.285417346647991
v 17.64366565162554 43.81392423024034 12.385113246599301
v 41.04060819411487 -66.26074939582392 41.60238031643721
v 62.538136871736555 -33.588424767611876 7.2334995383621665
v 8.132494910318298 -71.99650243257486 -0.3613377731496371
v 50.99438883022423 -25.48180262224355 45.26144959294688
v 7.931497817394564 -16.554473329512273 72.18970608503417
v 36.93368449330255 48.47513926867368 -6.356237869461115
v 14.290007752343811 -56.43428224385585 53.566113812770226
v 38.3178220884125 -32.16812832351887 -10.520138131703455
v 50.463414153544285 -60.69747887688058 -12.713649563443933
v 7.605407600078169 32.11295417525892 56.27235191665207
v 46.69287489956261 -27.444684654693216 22.706713889080827
v 24.847549968263863 -10.623279388342628 -31.38234176410173
v 23.943464763825776 -9.470818781180343 54.40086098441982
v 6.590243363224205 33.621148812831734 19.19708309192875
v 25.098623459061656 44.54433841044076 24.524722294653785
v 58.646295352712855 5.129451901255673 5.32101376454495
v 56.34552617454125 -55.56541217526263 6.6767552362315765
v 1.9093816847442517 -29.151327419113716 36.93171721939236
v 13.437132571179953 -1.5036073364454126 45.23617816413108
v 42.496871382199046 34.985831180351035 16.27481952746661
v 8.987556138676869 64.36467131789816 7.522407139463655
v 6.6694141012600845 -23.049957930392218 -9.031802709675064
v 37.516552519425915 -86.2479932418727 0.2502156504542548
v 61.186562403161844 -7.191269382353485 -0.7880236896915425
v 48.06524399292905 -8.73253629950961 -35.01447395442612
v 8.563612795774167 -48.78999304456616 5.704516702354223
v 31.5171359191615 -49.2744527214389 -12.64603144660789
v 15.625299738752767 -84.15517161724644 24.71442666586487
v 65.41054572473394 -20.146115803850584 -15.981531704154053
v 45.272552298423285 -22.145768101982544 -12.018364691373757
v 40.101401364108185 5.633664926449146 -32.38876001353725
f 6 30 3
f 41 34 33
f 1 4 3
f 13 22 10
f 31 39 36
f 21 32 4
f 41 33 23
f 30 1 3
f 19 17 2
f 4 32 25
f 20 37 38
f 8 23 21
f 31 22 39
f 10 22 31
f 25 12 3
f 25 37 12
f 18 15 26
f 18 14 16
f 19 6 7
f 34 14 18
f 16 42 28
f 38 16 28
f 7 10 24
f 31 36 17
f 23 32 21
f 23 33 32
f 33 26 32
f 15 11 37
f 13 42 22
f 1 8 21
f 9 8 1
f 24 31 17
f 17 9 2
f 7 17 19
f 11 27 38
f 18 29 15
f 1 21 4
f 22 42 39
f 32 26 25
f 2 30 19
f 12 28 13
f 24 17 7
f 24 10 31
f 9 1 35
f 37 25 15
f 39 8 36
f 40 39 42
f 29 16 27
f 16 14 5
f 35 1 30
f 7 6 13
f 25 26 15
f 28 12 20
f 39 40 8
f 16 5 40
f 29 27 11
f 18 16 29
f 2 35 30
f 30 6 19
f 17 36 9
f 25 3 4
f 20 38 28
f 37 11 38
f 42 16 40
f 34 26 33
f 9 35 2
f 12 6 3
f 6 12 13
f 13 10 7
f 8 9 36
f 37 20 12
f 29 11 15
f 42 13 28
f 23 8 40
f 41 23 40
f 5 41 40
f 14 41 5
f 14 34 41
f 18 26 34
f 27 16 38
f 47 71 43
f 48 74 70
f 73 52 71
f 78 79 59
f 46 65 57
f 44 59 56
f 64 60 83
f 72 58 67
f 49 68 72
f 74 78 70
f 77 79 64
f 60 74 48
f 46 50 65
f 73 62 67
f 81 82 69
f 67 50 72
f 79 55 80
f 78 74 60
f 64 78 60
f 79 61 75
f 77 61 79
f 77 83 81
f 61 77 81
f 76 83 45
f 60 48 83
f 62 73 71
f 58 48 73
f 47 43 44
f 67 62 65
f 53 56 59
f 48 52 73
f 53 69 82
f 79 75 55
f 81 69 61
f 52 66 71
f 78 59 70
f 56 53 54
f 65 62 57
f 57 47 44
f 66 48 70
f 71 47 62
f 56 63 68
f 80 75 59
f 53 61 69
f 53 75 61
f 45 54 76
f 83 77 64
f 81 83 82
f 44 46 57
f 70 71 66
f 47 57 62
f 44 68 46
f 68 63 51
f 51 58 72
f 43 70 59
f 50 67 65
f 83 51 45
f 82 76 54
f 71 70 43
f 59 44 43
f 44 56 68
f 49 72 50
f 49 50 46
f 68 49 46
f 63 45 51
f 68 51 72
f 58 73 67
f 48 66 52
f 80 59 79
f 75 53 59
f 54 63 56
f 53 82 54
f 54 45 63
f 51 48 58
f 83 48 51
f 79 78 64
f 75 80 55
f 82 83 76
