v -3.625565130063653 -30.638868397558127 8.978823213987216
v -52.43619157074437 3.551076624494578 6.994248756258027
v -5.660400333852085 -76.26769644979248 4.319021219655023
v -36.800058874593155 8.33071519936018 58.420077829163155
v -23.178502121147343 -42.44484750717002 57.00506282856559
v -33.304698148631054 -43.29396130702282 31.174000542649107
v -4.673791878959427 -55.03401021931698 12.805485906388665
v -52.928462420154894 -44.6352449899886 46.55405373396235
v -51.39615192592144 20.381597411017378 14.49187581838486
v -52.55626235460259 -49.99262485247924 -18.71759980276493
v -24.317174655076176 -16.165293511840254 -30.674764391300265
v -36.567342060427094 -14.730195557760505 64.78779955220332
v -13.039073966831449 -6.335122497255535 70.05752997444044
v -18.93114754275625 -41.745642020113245 -6.493935123966093
v -36.03805601550863 6.525979249448666 -9.601682649685497
v -41.3049424427425 25.785185956896722 21.20866522575565
v -48.0214974564951 -47.65593991525413 15.291762695281955
v -13.380403244948662 23.58099454249237 29.46921720058379
v -29.760027061454352 -26.19849900752574 44.94704749058429
v -37.042748073196734 -35.35622001676097 -8.435413000469092
v -13.018822912389133 -97.1332863271596 7.44270235972309
v -25.63598312032846 -62.20088744519623 9.512728066127272
v -41.57321262843655 -31.533113800642784 43.18902236365962
v -25.054672697443984 -59.06999173286244 58.350651464374046
v -13.290548341215928 -22.64363121306207 74.88682791191468
v -39.74289177450226 2.661505713543319 -28.03555173293403
v -33.0071878042112 -88.54483013097399 4.628957502389282
v -15.493166202944332 -38.795724621069446 39.94468133632483
v -3.2722380042663306 -0.9703430555815672 38.80643663922315
v -28.432998279872496 31.61999821749959 6.611471894025946
v -42.71860197809896 -10.218350721822754 -30.832299555326696
v -43.61030267860316 -65.67264108595536 -6.276639849522952
v -29.988981754436608 -50.4051499311696 -8.336394075193734
v -34.97481392403933 50.4985227774368 4.579119937510956
v -7.2494284156150535 28.606752236610294 55.5432209151059
v -35.46605958239052 -82.54082729827746 -13.555846754944923
v -24.820562876275286 -11.73079174404984 47.04190945424132
v -9.212195996570703 -61.61070974540145 58.41343713361571
v -22.652923239030716 23.748232165225666 42.861058083874404
v -35.672201736028114 -7.261931056018426 17.062110382083468
v -56.50976681684924 -27.238194612979722 1.9318158878999494
v -0.7236046246485187 36.774650451422175 4.568993312840272
v -55.81755339491828 0.7640951295638521 -8.47506459800074
v -8.19709983770425 55.054071133126854 28.923563563985212
v -32.25890791640019 32.896040901534406 36.795885746336936
v -59.917046796302124 -25.930683717007206 19.47570881450413
v -35.596947613338685 -69.53174002658555 43.059517299427824
v -51.85169491058139 -62.31250183516237 7.627449397543425
v -4.684307382624138 -80.21130935892073 26.09403435713839
v -2.409077169202165 -31.664174125947106 25.313490574464918
v -10.965010112624844 -95.4113582482671 -9.734691744327545
v -53.30434662468084 -5.717861178548688 43.467123215283266
v -43.82876946225941 -17.108268961166942 38.17344743202032
v -9.3180954128819 60.00215095165775 -15.868386226489854
v -33.133665365630684 -35.17653830931756 21.845067227193052
v -47.687928516465675 -23.31472289959698 0.8384512350172415
v -45.240453159868025 -26.040131774879267 -10.80913979387181
v -61.98304671304948 -22.608079852471775 -18.661999295042808
v -35.094986827524174 0.4842328669288721 31.34218968354838
v -5.674699564906807 -36.61376992531179 64.42591626103942
v -47.30658059932794 34.18583503581506 -12.799748159173314
v -25.282869654080162 53.058767285346356 -8.32231891614453
v -27.201280325799168 -64.1659611739578 22.057728291412946
v -19.24121142409905 -83.17852011310458 39.04172862828715
v -9.489440958765151 20.841974556135565 -19.04450190225477
v -29.93629406472263 -6.166724336557317 -15.292249870391347
v -36.62462005598404 10.18557742174072 -37.53377850205463
v -5.651832201902266 2.827073778710255 -12.302291066057396
v -4.367952350223438 -19.27554915625688 -18.855013237371065
v 20.60012596085546 -64.00968127294014 33.40524340986916
v 39.07419986245303 37.310951604311924 20.128653725248803
v 31.835740736813786 -38.712518518196724 47.48762375073504
v 19.64094250681673 -33.39067459117484 37.24381276235202
v 15.464218989695615 -35.09158193992568 73.08715688186734
v 40.08845235298913 -81.1652372454008 9.708222625902545
v 38.334837682223394 -25.029401304639293 0.4630433035046421
v 30.988903830495197 -18.347924971932077 71.05132848445021
v 6.870325968031492 26.951462576404673 59.527835457958986
v 4.318491062112694 -34.38315211687083 57.39564294770719
v 7.782725905933841 38.40444151867767 -22.328750766234712
v 54.412410504396185 -41.483586945446284 38.04521303640499
v 50.215606744987696 -18.191173471480987 41.95915741565325
v 33.306947467609994 6.968178895650269 27.289461993038437
v 38.53497703108348 9.19794737799644 53.936527842285244
v 36.98829992882828 27.19850835406157 -11.006521652807937
v 33.037113824249055 19.418751448407583 9.285417346647991
v 17.64366565162554 43.81392423024034 12.385113246599301
v 26.751503954872625 -59.68852185899632 3.285957206638465
v 41.04060819411487 -66.26074939582392 41.60238031643721
v 62.538136871736555 -33.588424767611876 7.2334995383621665
v 25.429325755456762 12.008616198943674 -15.594917744773076
v 8.392102175760732 -33.89617749251512 5.32367699545935
v 10.856130401266014 -86.26115370531878 -6.934622132932586
v 55.1801344939646 -48.976186547760825 -15.801114841135163
v 43.0227668078667 -31.678377709671867 61.66113526890104
v 7.931497817394564 -16.554473329512273 72.18970608503417
v 30.896439993939175 -27.021763402574198 46.4395936276961
v 39.074547291231575 53.952030491026576 -8.565551255182854
v 12.157802933648066 -59.365005353081486 58.076585860560876
v 38.3178220884125 -32.16812832351887 -10.520138131703455
v 41.7531895917256 -70.88476547279734 -10.709552149518087
v 17.819117154561045 44.312745726980395 39.76283732848037
v 46.77084984197783 -6.751151382750248 50.69689149874533
v 37.39025234766657 -14.224418537672596 21.173747589453946
v 18.39072518525032 54.178176572146874 -8.360268105207167
v 51.23515782310925 -28.35791686598676 20.59292854048189
v 26.373697901386553 10.110676405811839 -38.97704505087069
v 46.016274173448274 -9.506496023833344 -41.49675446063038
v 24.847549968263863 -10.623279388342628 -31.38234176410173
v 23.943464763825776 -9.470818781180343 54.40086098441982
v 6.590243363224205 33.621148812831734 19.19708309192875
v 25.098623459061656 44.54433841044076 24.524722294653785
v 29.815452445090845 -18.685726421189333 39.044505109407346
v 58.646295352712855 5.129451901255673 5.32101376454495
v 16.18511773004703 -82.51467624924213 26.11211848131623
v 39.54063770006883 -1.9350789315715204 -25.75948721733225
v 56.34552617454125 -55.56541217526263 6.6767552362315765
v 1.995877932863078 -2.3021257701943165 38.68980069972992
v 3.742206209271648 -19.684250700975365 -16.440766056495992
v 7.781201912670336 -71.7345784241448 5.436549569827175
v 13.437132571179953 -1.5036073364454126 45.23617816413108
v 46.75622558532665 23.936834649488794 13.462690139974661
v 8.987556138676869 64.36467131789816 7.522407139463655
v 6.236234576273584 -8.32789836868773 -11.205345995285555
v 4.1677552884935025 -38.32281262950346 34.724049049724385
v 24.19716668654152 -95.58144400279524 -8.399672382860384
v 61.186562403161844 -7.191269382353485 -0.7880236896915425
v 44.374766291554124 -31.51210706253624 -0.3849657874608332
v 42.58179430276883 -17.765974410161487 -28.402924816295638
v 8.563612795774167 -48.78999304456616 5.704516702354223
v 26.7972821466692 -45.86582423038805 -7.477643307883621
v 15.291625147329633 -95.70917978953905 2.668578877573205
v 29.305584632794368 -74.38919655875993 -10.223174876185453
v 65.41054572473394 -20.146115803850584 -15.981531704154053
v 45.659071429220695 -14.458389935882428 -18.52385984683144
v 45.503011454599566 13.474758246313142 -29.697034319751893
f 12 52 53
f 45 39 44
f 67 58 57
f 2 46 53
f 29 42 18
f 54 65 62
f 56 43 41
f 55 17 46
f 7 1 50
f 67 57 43
f 11 14 33
f 52 2 53
f 37 39 4
f 8 17 47
f 38 63 64
f 5 38 28
f 15 26 40
f 54 42 65
f 18 42 54
f 47 24 6
f 47 63 24
f 10 32 48
f 36 31 33
f 53 23 19
f 37 25 13
f 25 12 19
f 60 25 19
f 34 16 45
f 58 31 10
f 14 1 7
f 22 14 7
f 8 6 23
f 60 13 25
f 13 18 35
f 54 62 34
f 26 56 55
f 43 57 41
f 57 48 17
f 27 21 63
f 29 1 42
f 21 3 49
f 33 14 3
f 44 34 45
f 55 56 41
f 2 30 40
f 9 30 2
f 12 25 37
f 44 54 34
f 46 17 8
f 45 16 4
f 45 4 39
f 13 39 37
f 21 49 64
f 28 7 50
f 36 51 27
f 41 57 17
f 10 36 32
f 2 40 46
f 42 68 65
f 35 18 44
f 17 48 47
f 4 52 37
f 46 40 55
f 28 50 29
f 6 24 5
f 35 39 13
f 44 18 54
f 9 2 59
f 17 55 41
f 63 47 27
f 64 49 22
f 65 30 61
f 66 65 68
f 49 3 22
f 51 33 3
f 14 20 1
f 11 20 14
f 33 31 11
f 12 53 19
f 59 2 52
f 5 24 38
f 23 6 5
f 13 60 29
f 30 15 40
f 47 48 27
f 7 28 38
f 65 66 15
f 20 11 66
f 51 3 21
f 36 33 51
f 4 59 52
f 52 12 37
f 23 60 19
f 34 9 16
f 34 61 9
f 47 6 8
f 7 64 22
f 38 64 7
f 63 21 64
f 66 68 69
f 69 20 66
f 26 67 43
f 58 48 57
f 16 59 4
f 46 8 23
f 53 46 23
f 5 60 23
f 60 28 29
f 28 60 5
f 35 44 39
f 29 18 13
f 62 65 61
f 62 61 34
f 16 9 59
f 30 9 61
f 26 55 40
f 63 38 24
f 51 21 27
f 1 68 42
f 1 29 50
f 65 15 30
f 26 15 66
f 67 26 66
f 11 67 66
f 31 67 11
f 43 56 26
f 31 58 67
f 32 36 27
f 32 27 48
f 10 48 58
f 31 36 10
f 3 14 22
f 69 68 1
f 69 1 20
f 102 123 78
f 79 121 73
f 80 124 118
f 98 105 112
f 131 120 88
f 123 87 121
f 130 88 70
f 77 110 96
f 80 91 124
f 130 131 88
f 74 72 95
f 109 100 116
f 71 98 112
f 83 114 122
f 92 130 125
f 129 131 109
f 81 106 82
f 100 124 91
f 79 74 97
f 103 84 110
f 120 93 132
f 123 102 112
f 134 135 117
f 112 84 71
f 105 91 80
f 88 120 115
f 115 132 75
f 81 82 72
f 94 129 108
f 130 92 100
f 100 92 119
f 109 130 100
f 133 101 126
f 129 94 133
f 108 136 134
f 94 108 134
f 127 116 76
f 127 136 116
f 100 91 116
f 78 123 121
f 105 80 123
f 133 93 131
f 79 73 74
f 112 102 110
f 89 81 72
f 95 72 82
f 85 105 98
f 80 87 123
f 125 73 118
f 89 117 128
f 133 126 93
f 134 117 94
f 110 77 103
f 87 111 121
f 72 99 89
f 124 125 118
f 130 70 125
f 81 89 90
f 131 129 133
f 110 102 96
f 96 79 97
f 103 97 113
f 111 80 118
f 124 100 119
f 121 79 78
f 97 82 113
f 82 106 114
f 99 70 89
f 115 75 70
f 89 101 117
f 89 75 101
f 76 90 127
f 107 116 136
f 107 129 109
f 128 135 127
f 134 136 135
f 97 77 96
f 77 97 103
f 118 121 111
f 79 96 78
f 82 97 95
f 113 114 103
f 114 104 86
f 86 85 122
f 73 125 99
f 85 91 105
f 94 117 101
f 84 112 110
f 102 78 96
f 97 74 95
f 71 83 122
f 122 98 71
f 99 125 70
f 116 86 76
f 131 93 120
f 101 75 126
f 128 127 90
f 128 117 135
f 121 118 73
f 99 72 74
f 99 74 73
f 113 82 114
f 83 71 84
f 83 84 103
f 114 83 103
f 104 76 86
f 114 86 122
f 106 104 114
f 85 98 122
f 105 123 112
f 80 111 87
f 124 92 125
f 119 92 124
f 115 120 132
f 115 70 88
f 75 89 70
f 132 126 75
f 90 106 81
f 89 128 90
f 106 76 104
f 90 76 106
f 86 91 85
f 116 91 86
f 107 109 116
f 108 107 136
f 129 107 108
f 131 130 109
f 126 132 93
f 133 94 101
f 135 136 127
